<?xml version="1.0" standalone="no"?>
<!DOCTYPE svg PUBLIC "-//W3C//DTD SVG 20010904//EN"
 "http://www.w3.org/TR/2001/REC-SVG-20010904/DTD/svg10.dtd">
<svg version="1.0" xmlns="http://www.w3.org/2000/svg"
 width="260.000000pt" height="264.000000pt" viewBox="0 0 260.000000 264.000000"
 preserveAspectRatio="xMidYMid meet">

<g transform="translate(0.000000,264.000000) scale(0.100000,-0.100000)"
fill="#000000" stroke="none">
<path d="M0 2060 c0 -380 3 -580 10 -580 6 0 10 -8 10 -17 0 -14 -2 -15 -9 -4
-5 8 -8 -41 -7 -117 0 -71 4 -128 9 -125 4 2 7 -3 7 -11 0 -9 -4 -16 -10 -16
-7 0 -10 -205 -10 -595 l0 -595 1300 0 1300 0 0 1320 0 1320 -757 0 c-530 -1
-753 -4 -743 -11 11 -8 8 -9 -13 -4 -19 4 -26 2 -22 -5 3 -6 -3 -10 -14 -10
-12 0 -20 6 -18 13 1 9 -108 13 -515 15 l-518 2 0 -580z m1020 560 c-8 -5 -10
-10 -5 -10 6 -1 -24 -11 -65 -24 -113 -35 -133 -44 -126 -61 3 -8 1 -15 -4
-15 -21 0 -9 -20 13 -21 21 -1 -114 -31 -202 -44 -33 -5 -42 -4 -39 7 3 7 13
13 24 13 10 0 25 6 32 15 8 9 11 10 7 2 -6 -11 -3 -12 14 -3 11 7 21 17 21 23
0 6 3 9 6 5 4 -3 15 4 25 16 11 13 18 17 19 9 0 -10 4 -10 15 2 9 8 23 12 32
9 10 -4 14 -2 10 4 -8 13 18 24 38 16 10 -3 15 0 13 8 -2 9 6 14 24 13 15 0
25 3 22 7 -2 4 3 9 10 12 8 3 17 1 20 -6 5 -9 7 -9 12 0 3 7 12 9 21 6 12 -5
14 -3 8 7 -6 10 -3 12 13 8 12 -4 22 -2 22 3 0 5 8 9 18 9 14 0 15 -2 2 -10z
m570 0 c0 -5 -7 -10 -15 -10 -8 0 -15 5 -15 10 0 6 7 10 15 10 8 0 15 -4 15
-10z m127 -36 c-3 -3 -12 -4 -19 -1 -8 3 -5 6 6 6 11 1 17 -2 13 -5z m-464
-31 c-7 -2 -19 -2 -25 0 -7 3 -2 5 12 5 14 0 19 -2 13 -5z m562 -3 c-3 -5 -12
-10 -18 -10 -7 0 -6 4 3 10 19 12 23 12 15 0z m-618 -6 c-3 -3 -12 -4 -19 -1
-8 3 -5 6 6 6 11 1 17 -2 13 -5z m720 -50 c0 -7 -6 -10 -14 -7 -7 3 -13 8 -13
12 0 4 6 8 13 8 8 0 14 -6 14 -13z m-1337 -58 c0 -2 -6 -9 -14 -15 -11 -9 -16
-9 -22 0 -4 7 -3 9 4 5 6 -3 13 -2 17 4 6 10 15 14 15 6z m1483 -36 c3 -11 1
-18 -4 -14 -5 3 -9 12 -9 20 0 20 7 17 13 -6z m-1523 6 c0 -2 -6 -9 -14 -15
-11 -9 -16 -9 -22 0 -4 7 -3 9 4 5 6 -3 13 -2 17 4 6 10 15 14 15 6z m1590
-61 c13 -14 19 -25 13 -25 -6 0 -18 11 -27 25 -9 14 -15 25 -13 25 2 0 14 -11
27 -25z m110 -108 c-3 -2 -23 17 -44 42 l-40 46 44 -42 c24 -23 42 -44 40 -46z
m-1840 38 c-18 -19 -35 -33 -38 -31 -4 4 59 65 67 66 3 0 -10 -16 -29 -35z
m1547 -32 c-2 -16 -4 -5 -4 22 0 28 2 40 4 28 2 -13 2 -35 0 -50z m318 -33 c3
-5 1 -10 -4 -10 -6 0 -11 5 -11 10 0 6 2 10 4 10 3 0 8 -4 11 -10z m-1993 -80
c-15 -17 -22 -19 -28 -8 -4 7 -4 10 1 6 5 -5 15 1 23 13 8 11 16 18 19 15 3
-2 -4 -14 -15 -26z m981 -250 c20 -1 21 -2 5 -14 -32 -24 -21 -55 41 -119 51
-54 58 -65 49 -82 -17 -31 -18 -31 -39 -5 l-20 25 18 -45 c9 -25 20 -47 24
-50 4 -3 30 -47 59 -97 29 -51 55 -93 57 -93 2 0 -13 31 -32 70 -19 38 -35 72
-35 75 0 3 16 -12 35 -32 25 -27 31 -39 22 -45 -8 -5 -6 -8 8 -8 11 0 26 -9
33 -20 10 -16 16 -18 39 -9 20 7 28 7 35 -3 12 -20 10 -27 -14 -33 -18 -5 -23
-13 -24 -40 0 -29 3 -35 21 -35 20 0 22 -7 31 -98 8 -72 18 -115 41 -167 35
-78 49 -137 57 -242 6 -69 5 -73 -24 -105 -28 -31 -29 -34 -13 -46 10 -7 24
-10 32 -7 15 6 31 -11 31 -32 0 -22 -20 -14 -78 31 -74 58 -100 65 -131 32
-12 -13 -51 -34 -84 -46 -87 -31 -107 -42 -119 -63 -7 -14 -7 -17 1 -13 6 4
11 1 11 -6 0 -8 -17 -22 -38 -31 -50 -22 -60 -22 -32 1 l22 18 -23 0 c-13 0
-34 -12 -46 -26 -19 -21 -24 -23 -34 -10 -10 13 -10 13 -6 -1 3 -10 -6 -22
-29 -34 -38 -20 -42 -30 -16 -44 16 -9 16 -10 0 -16 -27 -10 -22 -35 6 -35 13
0 53 9 88 20 77 24 77 24 72 2 -4 -14 -43 -24 -212 -56 -385 -72 -467 -91
-464 -106 2 -10 0 -11 -11 -2 -8 7 -16 9 -19 6 -3 -3 -16 11 -28 30 -24 39
-32 46 -24 19 5 -16 4 -16 -10 1 -8 10 -13 24 -9 30 3 6 3 8 0 5 -9 -8 -153
134 -148 145 2 5 0 6 -6 3 -6 -4 -19 1 -29 9 -17 14 -17 15 -2 10 28 -8 21 0
-18 24 -19 12 -33 25 -30 28 3 3 0 12 -7 21 -11 14 -10 15 7 1 19 -15 19 -14
2 13 -17 24 -36 41 -21 17 3 -5 4 -10 1 -10 -3 0 -10 10 -17 21 -9 17 -8 20 3
14 7 -4 -1 5 -18 21 -17 16 -30 37 -29 47 2 9 -1 17 -6 17 -6 0 -8 4 -5 9 3 5
-1 12 -10 15 -9 3 -14 13 -11 20 3 8 -1 17 -9 20 -8 3 -14 13 -14 21 0 9 -4
14 -9 11 -5 -3 -8 8 -7 24 1 17 -1 30 -4 30 -15 0 -38 67 -28 83 6 11 5 17 -2
17 -6 0 -8 5 -4 11 3 6 2 14 -3 18 -6 3 -13 18 -16 33 -8 31 -7 31 96 49 45 7
75 18 87 32 25 26 70 31 86 9 8 -9 14 -15 14 -12 1 3 3 19 5 36 9 69 29 109
55 112 34 5 49 20 30 32 -12 8 -11 10 6 10 37 0 78 28 89 61 10 29 15 17 70
-167 l59 -199 8 -180 c10 -215 12 -225 39 -225 21 0 767 188 781 197 17 10 5
44 -66 198 -79 169 -112 279 -87 294 10 7 12 21 7 56 -5 30 -3 51 4 60 7 8 9
19 5 26 -6 8 -10 7 -16 -2 -7 -11 -9 -11 -9 2 0 9 10 21 23 27 l22 11 -25 1
c-20 1 -30 12 -53 61 -20 42 -34 59 -47 59 -22 0 -35 37 -25 69 3 12 2 21 -4
21 -5 0 -15 25 -21 55 -6 30 -15 57 -20 60 -4 3 -7 23 -6 45 1 22 -1 40 -6 40
-11 0 -10 48 1 55 10 5 41 -21 41 -34 0 -11 101 -191 107 -191 2 0 -23 51 -56
114 -34 63 -61 120 -61 126 0 6 14 -2 31 -19 17 -17 40 -31 52 -31z m1217 46
c0 -3 -4 -8 -10 -11 -5 -3 -10 -1 -10 4 0 6 5 11 10 11 6 0 10 -2 10 -4z
m-1890 -64 c0 -39 -8 -44 -35 -24 -21 16 -22 18 -6 34 25 26 41 22 41 -10z
m20 -92 c4 0 11 -11 14 -24 3 -13 9 -31 12 -39 4 -12 -4 -17 -33 -23 -21 -4
-46 -11 -55 -16 -13 -6 -18 -5 -18 5 0 8 -8 25 -19 38 -22 30 -17 49 15 49 13
0 29 9 36 19 10 16 14 17 25 5 8 -8 18 -14 23 -14z m59 -23 c-1 -31 -1 -31 -9
-7 -11 36 -11 52 0 45 6 -3 10 -21 9 -38z m-585 7 c3 -8 2 -12 -4 -9 -6 3 -10
10 -10 16 0 14 7 11 14 -7z m-10 -29 c3 -8 1 -15 -4 -15 -6 0 -10 7 -10 15 0
8 2 15 4 15 2 0 6 -7 10 -15z m431 -55 c3 -5 1 -10 -4 -10 -6 0 -11 5 -11 10
0 6 2 10 4 10 3 0 8 -4 11 -10z m2060 -10 c3 -6 -1 -7 -9 -4 -18 7 -21 14 -7
14 6 0 13 -4 16 -10z m-2016 -138 c1 -59 3 -63 28 -73 22 -8 24 -12 13 -19 -8
-6 -25 -10 -38 -10 -12 0 -25 -7 -28 -15 -5 -11 -10 -12 -26 -4 -15 8 -17 13
-8 19 8 5 2 11 -18 18 -27 9 -31 8 -36 -11 -3 -12 -8 -18 -12 -14 -13 13 17
53 49 65 l32 12 -25 13 c-16 8 -25 22 -27 41 -2 34 16 55 51 58 14 1 26 7 27
13 0 5 4 1 9 -10 5 -11 9 -48 9 -83z m2037 -6 c-1 -25 -5 -48 -8 -52 -4 -3 -5
13 -2 37 3 32 2 40 -6 29 -8 -13 -10 -13 -10 2 0 9 6 19 13 21 6 3 13 6 13 6
1 1 1 -19 0 -43z m-1344 -152 c15 -76 27 -144 28 -150 0 -6 -42 -21 -92 -33
-317 -74 -501 -112 -508 -105 -5 5 -27 72 -48 149 -28 99 -37 142 -28 147 6 3
135 33 286 66 151 33 284 63 295 65 11 3 25 4 30 2 6 -1 22 -64 37 -141z
m-502 106 c0 -9 -61 -30 -87 -30 -23 0 -14 28 10 33 42 8 77 7 77 -3z m1761
-16 c13 -14 36 -32 52 -40 25 -14 27 -13 27 6 0 11 5 20 10 20 6 0 10 -42 10
-105 0 -66 -4 -105 -10 -105 -7 0 -8 -19 -5 -52 5 -39 4 -49 -4 -38 -8 11 -9
7 -5 -17 4 -19 2 -33 -3 -33 -5 0 -8 -13 -5 -30 2 -18 0 -30 -7 -30 -6 0 -8
-7 -5 -15 4 -9 1 -15 -7 -15 -10 0 -10 -3 -2 -11 14 -14 5 -42 -10 -32 -6 4
-7 1 -2 -7 4 -7 2 -16 -6 -21 -10 -6 -10 -9 -2 -9 7 0 10 -7 7 -15 -4 -8 -9
-13 -13 -11 -4 3 -6 -7 -6 -22 1 -32 -13 -65 -24 -58 -5 3 -8 -4 -7 -17 1 -14
-4 -21 -13 -19 -12 3 -12 1 0 -14 12 -16 12 -17 -3 -11 -13 4 -15 2 -11 -10 4
-9 2 -14 -3 -10 -5 3 -11 -3 -12 -14 -4 -42 -6 -47 -19 -42 -9 3 -11 0 -7 -10
3 -8 0 -18 -7 -23 -8 -5 -10 -3 -4 6 5 9 4 11 -4 6 -9 -6 -9 -11 1 -24 11 -13
10 -15 -5 -9 -10 4 -16 3 -13 -2 3 -5 -14 -30 -39 -56 -24 -26 -43 -51 -42
-54 1 -4 -9 -18 -23 -32 -15 -13 -17 -17 -5 -9 18 13 17 12 -2 -11 -13 -14
-23 -28 -23 -31 0 -3 -16 -22 -35 -41 -19 -19 -35 -32 -35 -28 0 4 13 20 29
35 23 22 28 34 24 57 -6 43 -28 117 -49 171 -18 46 -18 48 1 68 20 22 20 22
-8 46 -18 16 -24 25 -15 28 7 1 29 9 48 16 19 7 60 21 90 32 52 19 95 46 86
55 -2 3 -25 -4 -50 -16 -56 -24 -61 -10 -13 36 37 35 74 53 115 53 24 1 25 2
8 11 -17 11 -75 7 -112 -8 -12 -4 -15 -3 -10 5 11 17 -5 15 -26 -5 -10 -9 -18
-11 -18 -6 0 6 7 16 14 23 8 6 23 32 32 56 l17 45 28 -44 c26 -42 31 -45 78
-48 28 -2 51 -2 51 1 0 3 -23 24 -52 45 -29 22 -71 56 -95 77 -23 20 -60 44
-83 54 -32 14 -40 23 -40 44 0 17 8 29 23 35 33 15 58 76 64 159 l6 74 56 10
c87 15 96 14 122 -14z m-2109 -36 c-7 -7 -12 -8 -12 -2 0 14 12 26 19 19 2 -3
-1 -11 -7 -17z m1352 -95 c-7 -53 -27 -84 -44 -67 -7 7 -1 27 18 62 15 28 28
52 29 52 2 0 0 -21 -3 -47z m-1408 -124 c-9 -22 -15 -27 -15 -16 -1 21 18 61
25 54 3 -3 -2 -20 -10 -38z m1334 -9 c0 -5 -4 -10 -10 -10 -5 0 -10 5 -10 10
0 6 5 10 10 10 6 0 10 -4 10 -10z m-1396 -26 c25 -10 19 -20 -14 -22 -21 -2
-30 2 -30 13 0 16 17 19 44 9z m-233 -18 c5 3 9 0 9 -5 0 -6 -7 -11 -15 -11
-8 0 -15 8 -14 18 0 10 3 12 6 4 2 -6 9 -10 14 -6z m791 -398 c-7 -7 -12 -8
-12 -2 0 14 12 26 19 19 2 -3 -1 -11 -7 -17z m673 -108 c3 -5 -6 -17 -20 -26
-13 -9 -22 -20 -19 -25 3 -5 0 -9 -5 -9 -6 0 -11 6 -11 13 0 8 -3 7 -10 -3 -6
-10 -12 -12 -20 -4 -7 7 1 18 27 37 41 29 49 32 58 17z m-141 -104 c-5 -13
-34 -31 -34 -22 0 16 14 36 26 36 7 0 11 -6 8 -14z m-185 -59 c-2 -1 -13 -9
-24 -17 -19 -14 -19 -14 -6 3 7 9 18 17 24 17 6 0 8 -1 6 -3z m436 -17 c-3 -5
-14 -10 -23 -10 -15 0 -15 2 -2 10 20 13 33 13 25 0z m345 -20 c6 -11 8 -20 6
-20 -3 0 -10 9 -16 20 -6 11 -8 20 -6 20 3 0 10 -9 16 -20z m-1534 -78 c-6 -5
-56 44 -56 54 0 4 13 -5 30 -21 16 -16 28 -30 26 -33z m1660 -77 c-14 -11 -16
-15 -5 -15 12 0 12 -2 -1 -10 -8 -5 -19 -10 -25 -10 -5 0 -3 5 5 10 8 5 11 10
6 10 -5 0 -3 7 4 15 7 8 18 15 24 15 6 0 2 -7 -8 -15z m-51 -53 c-3 -3 -11 0
-18 7 -9 10 -8 11 6 5 10 -3 15 -9 12 -12z m-55 -28 c0 -8 -33 -34 -43 -34 -7
0 -4 7 5 14 10 7 16 15 13 18 -3 2 2 5 10 5 8 0 15 -2 15 -3z m-83 -39 c0 -8
-4 -12 -9 -9 -5 3 -6 10 -3 15 9 13 12 11 12 -6z m-49 -29 c-2 -1 -12 -8 -22
-16 -18 -14 -19 -14 -7 8 7 12 17 20 22 16 6 -3 9 -7 7 -8z m-1013 -34 c-3 -3
-11 0 -18 7 -9 10 -8 11 6 5 10 -3 15 -9 12 -12z m110 -32 c-3 -5 -12 -10 -18
-10 -7 0 -6 4 3 10 19 12 23 12 15 0z m60 -28 c-3 -3 -11 0 -18 7 -9 10 -8 11
6 5 10 -3 15 -9 12 -12z m72 -8 c-3 -3 -12 -4 -19 -1 -8 3 -5 6 6 6 11 1 17
-2 13 -5z m148 -14 c-3 -5 -11 -10 -16 -10 -6 0 -7 5 -4 10 3 6 11 10 16 10 6
0 7 -4 4 -10z m175 0 c0 -5 -4 -10 -10 -10 -5 0 -10 5 -10 10 0 6 5 10 10 10
6 0 10 -4 10 -10z"/>
<path d="M1465 1353 c18 -42 23 -49 30 -41 6 5 -33 78 -41 78 -2 0 3 -17 11
-37z"/>
<path d="M250 546 c0 -2 7 -7 16 -10 8 -3 12 -2 9 4 -6 10 -25 14 -25 6z"/>
<path d="M536 267 c3 -10 9 -15 12 -12 3 3 0 11 -7 18 -10 9 -11 8 -5 -6z"/>
</g>
</svg>
